<mxfile host="Electron" agent="Mozilla/5.0 (Windows NT 10.0; Win64; x64) AppleWebKit/537.36 (KHTML, like Gecko) draw.io/26.2.15 Chrome/134.0.6998.205 Electron/35.2.1 Safari/537.36" version="26.2.15">
  <diagram id="N458_lr4ttNGEyz7QCCE" name="Page-1">
    <mxGraphModel dx="851" dy="515" grid="1" gridSize="10" guides="1" tooltips="1" connect="1" arrows="1" fold="1" page="1" pageScale="1" pageWidth="1100" pageHeight="850" math="0" shadow="0">
      <root>
        <mxCell id="0" />
        <mxCell id="1" parent="0" />
        <mxCell id="gPuFUhs2jfw6zia65dsm-2" value="&lt;font style=&quot;color: rgb(255, 255, 255);&quot;&gt;BudgetModel&lt;/font&gt;" style="swimlane;fontStyle=0;childLayout=stackLayout;horizontal=1;startSize=26;fillColor=none;horizontalStack=0;resizeParent=1;resizeParentMax=0;resizeLast=0;collapsible=1;marginBottom=0;whiteSpace=wrap;html=1;strokeColor=#D0CEE2;fontColor=#1A1A1A;" vertex="1" parent="1">
          <mxGeometry x="220" y="340" width="140" height="104" as="geometry" />
        </mxCell>
        <mxCell id="gPuFUhs2jfw6zia65dsm-3" value="+ field: type" style="text;strokeColor=none;fillColor=none;align=left;verticalAlign=top;spacingLeft=4;spacingRight=4;overflow=hidden;rotatable=0;points=[[0,0.5],[1,0.5]];portConstraint=eastwest;whiteSpace=wrap;html=1;fontColor=#1A1A1A;" vertex="1" parent="gPuFUhs2jfw6zia65dsm-2">
          <mxGeometry y="26" width="140" height="26" as="geometry" />
        </mxCell>
        <mxCell id="gPuFUhs2jfw6zia65dsm-4" value="+ field: type" style="text;strokeColor=none;fillColor=none;align=left;verticalAlign=top;spacingLeft=4;spacingRight=4;overflow=hidden;rotatable=0;points=[[0,0.5],[1,0.5]];portConstraint=eastwest;whiteSpace=wrap;html=1;fontColor=#1A1A1A;" vertex="1" parent="gPuFUhs2jfw6zia65dsm-2">
          <mxGeometry y="52" width="140" height="26" as="geometry" />
        </mxCell>
        <mxCell id="gPuFUhs2jfw6zia65dsm-5" value="+ field: type" style="text;strokeColor=none;fillColor=none;align=left;verticalAlign=top;spacingLeft=4;spacingRight=4;overflow=hidden;rotatable=0;points=[[0,0.5],[1,0.5]];portConstraint=eastwest;whiteSpace=wrap;html=1;fontColor=#1A1A1A;" vertex="1" parent="gPuFUhs2jfw6zia65dsm-2">
          <mxGeometry y="78" width="140" height="26" as="geometry" />
        </mxCell>
        <mxCell id="gPuFUhs2jfw6zia65dsm-11" value="&lt;font style=&quot;color: rgb(212, 225, 245);&quot;&gt;Extends&lt;/font&gt;" style="endArrow=block;endSize=16;endFill=0;html=1;rounded=0;strokeColor=#736CA8;fontColor=#1A1A1A;entryX=0.515;entryY=1.043;entryDx=0;entryDy=0;entryPerimeter=0;exitX=0.5;exitY=0;exitDx=0;exitDy=0;" edge="1" parent="1" source="gPuFUhs2jfw6zia65dsm-25" target="gPuFUhs2jfw6zia65dsm-5">
          <mxGeometry width="160" relative="1" as="geometry">
            <mxPoint x="290" y="519.9999999999999" as="sourcePoint" />
            <mxPoint x="460" y="660" as="targetPoint" />
          </mxGeometry>
        </mxCell>
        <mxCell id="gPuFUhs2jfw6zia65dsm-12" value="&lt;font style=&quot;color: rgb(255, 255, 255);&quot;&gt;SingletonMeta&lt;/font&gt;" style="swimlane;fontStyle=0;childLayout=stackLayout;horizontal=1;startSize=26;fillColor=none;horizontalStack=0;resizeParent=1;resizeParentMax=0;resizeLast=0;collapsible=1;marginBottom=0;whiteSpace=wrap;html=1;strokeColor=#D0CEE2;fontColor=#1A1A1A;" vertex="1" parent="1">
          <mxGeometry x="220" y="150" width="140" height="100" as="geometry" />
        </mxCell>
        <mxCell id="gPuFUhs2jfw6zia65dsm-13" value="+ field: type" style="text;strokeColor=none;fillColor=none;align=left;verticalAlign=top;spacingLeft=4;spacingRight=4;overflow=hidden;rotatable=0;points=[[0,0.5],[1,0.5]];portConstraint=eastwest;whiteSpace=wrap;html=1;fontColor=#1A1A1A;" vertex="1" parent="gPuFUhs2jfw6zia65dsm-12">
          <mxGeometry y="26" width="140" height="26" as="geometry" />
        </mxCell>
        <mxCell id="gPuFUhs2jfw6zia65dsm-14" value="+ field: type" style="text;strokeColor=none;fillColor=none;align=left;verticalAlign=top;spacingLeft=4;spacingRight=4;overflow=hidden;rotatable=0;points=[[0,0.5],[1,0.5]];portConstraint=eastwest;whiteSpace=wrap;html=1;fontColor=#1A1A1A;" vertex="1" parent="gPuFUhs2jfw6zia65dsm-12">
          <mxGeometry y="52" width="140" height="26" as="geometry" />
        </mxCell>
        <mxCell id="gPuFUhs2jfw6zia65dsm-15" value="+ field: type" style="text;strokeColor=none;fillColor=none;align=left;verticalAlign=top;spacingLeft=4;spacingRight=4;overflow=hidden;rotatable=0;points=[[0,0.5],[1,0.5]];portConstraint=eastwest;whiteSpace=wrap;html=1;fontColor=#1A1A1A;" vertex="1" parent="gPuFUhs2jfw6zia65dsm-12">
          <mxGeometry y="78" width="140" height="22" as="geometry" />
        </mxCell>
        <mxCell id="gPuFUhs2jfw6zia65dsm-16" value="&lt;font style=&quot;color: rgb(212, 225, 245);&quot;&gt;subclass&lt;/font&gt;" style="endArrow=block;endSize=16;endFill=0;html=1;rounded=0;strokeColor=#736CA8;fontColor=#1A1A1A;entryX=0.5;entryY=1;entryDx=0;entryDy=0;exitX=0.5;exitY=0;exitDx=0;exitDy=0;" edge="1" parent="1" source="gPuFUhs2jfw6zia65dsm-2" target="gPuFUhs2jfw6zia65dsm-12">
          <mxGeometry width="160" relative="1" as="geometry">
            <mxPoint x="289" y="340" as="sourcePoint" />
            <mxPoint x="291" y="265" as="targetPoint" />
          </mxGeometry>
        </mxCell>
        <mxCell id="gPuFUhs2jfw6zia65dsm-17" value="Financial Institution" style="swimlane;fontStyle=1;align=center;verticalAlign=top;childLayout=stackLayout;horizontal=1;startSize=26;horizontalStack=0;resizeParent=1;resizeParentMax=0;resizeLast=0;collapsible=1;marginBottom=0;whiteSpace=wrap;html=1;strokeColor=#D0CEE2;fontColor=#1A1A1A;fillColor=#5D7F99;" vertex="1" parent="1">
          <mxGeometry x="720" y="570" width="200" height="140" as="geometry">
            <mxRectangle x="430" y="598" width="140" height="30" as="alternateBounds" />
          </mxGeometry>
        </mxCell>
        <mxCell id="gPuFUhs2jfw6zia65dsm-18" value="&lt;font style=&quot;color: rgb(255, 255, 255);&quot;&gt;+ FI_NAME: str&lt;/font&gt;" style="text;strokeColor=none;fillColor=none;align=left;verticalAlign=middle;spacingLeft=4;spacingRight=4;overflow=hidden;rotatable=0;points=[[0,0.5],[1,0.5]];portConstraint=eastwest;whiteSpace=wrap;html=1;fontColor=#1A1A1A;fontFamily=Lucida Console;" vertex="1" parent="gPuFUhs2jfw6zia65dsm-17">
          <mxGeometry y="26" width="200" height="20" as="geometry" />
        </mxCell>
        <mxCell id="gPuFUhs2jfw6zia65dsm-45" value="&lt;font style=&quot;color: rgb(255, 255, 255);&quot;&gt;+ FI_TYPE: str&lt;/font&gt;" style="text;strokeColor=none;fillColor=none;align=left;verticalAlign=middle;spacingLeft=4;spacingRight=4;overflow=hidden;rotatable=0;points=[[0,0.5],[1,0.5]];portConstraint=eastwest;whiteSpace=wrap;html=1;fontColor=#1A1A1A;fontFamily=Lucida Console;" vertex="1" parent="gPuFUhs2jfw6zia65dsm-17">
          <mxGeometry y="46" width="200" height="20" as="geometry" />
        </mxCell>
        <mxCell id="gPuFUhs2jfw6zia65dsm-22" value="&lt;font style=&quot;color: rgb(255, 255, 255);&quot;&gt;+ FI_FOLDER: str&lt;/font&gt;" style="text;strokeColor=none;fillColor=none;align=left;verticalAlign=middle;spacingLeft=4;spacingRight=4;overflow=hidden;rotatable=0;points=[[0,0.5],[1,0.5]];portConstraint=eastwest;whiteSpace=wrap;html=1;fontColor=#1A1A1A;fontFamily=Lucida Console;" vertex="1" parent="gPuFUhs2jfw6zia65dsm-17">
          <mxGeometry y="66" width="200" height="20" as="geometry" />
        </mxCell>
        <mxCell id="gPuFUhs2jfw6zia65dsm-23" value="&lt;font style=&quot;color: rgb(255, 255, 255);&quot;&gt;+ FI_WORKFLOWS: str&lt;/font&gt;" style="text;strokeColor=none;fillColor=none;align=left;verticalAlign=middle;spacingLeft=4;spacingRight=4;overflow=hidden;rotatable=0;points=[[0,0.5],[1,0.5]];portConstraint=eastwest;whiteSpace=wrap;html=1;fontColor=#1A1A1A;fontFamily=Lucida Console;" vertex="1" parent="gPuFUhs2jfw6zia65dsm-17">
          <mxGeometry y="86" width="200" height="20" as="geometry" />
        </mxCell>
        <mxCell id="gPuFUhs2jfw6zia65dsm-19" value="" style="line;strokeWidth=1;fillColor=none;align=left;verticalAlign=middle;spacingTop=-1;spacingLeft=3;spacingRight=3;rotatable=0;labelPosition=right;points=[];portConstraint=eastwest;strokeColor=inherit;fontColor=#1A1A1A;" vertex="1" parent="gPuFUhs2jfw6zia65dsm-17">
          <mxGeometry y="106" width="200" height="8" as="geometry" />
        </mxCell>
        <mxCell id="gPuFUhs2jfw6zia65dsm-21" value="+ name: str" style="text;strokeColor=none;fillColor=none;align=left;verticalAlign=top;spacingLeft=4;spacingRight=4;overflow=hidden;rotatable=0;points=[[0,0.5],[1,0.5]];portConstraint=eastwest;whiteSpace=wrap;html=1;fontColor=#1A1A1A;" vertex="1" parent="gPuFUhs2jfw6zia65dsm-17">
          <mxGeometry y="114" width="200" height="26" as="geometry" />
        </mxCell>
        <mxCell id="gPuFUhs2jfw6zia65dsm-25" value="BudgetModel" style="swimlane;fontStyle=1;align=center;verticalAlign=top;childLayout=stackLayout;horizontal=1;startSize=26;horizontalStack=0;resizeParent=1;resizeParentMax=0;resizeLast=0;collapsible=1;marginBottom=0;whiteSpace=wrap;html=1;strokeColor=#D0CEE2;fontColor=#1A1A1A;fillColor=#5D7F99;" vertex="1" parent="1">
          <mxGeometry x="220" y="530" width="350" height="176" as="geometry">
            <mxRectangle x="430" y="598" width="140" height="30" as="alternateBounds" />
          </mxGeometry>
        </mxCell>
        <mxCell id="gPuFUhs2jfw6zia65dsm-26" value="&lt;font style=&quot;color: rgb(255, 255, 255);&quot;&gt;+ initialized: bool&lt;/font&gt;" style="text;strokeColor=none;fillColor=none;align=left;verticalAlign=middle;spacingLeft=4;spacingRight=4;overflow=hidden;rotatable=0;points=[[0,0.5],[1,0.5]];portConstraint=eastwest;whiteSpace=wrap;html=1;fontColor=#1A1A1A;fontFamily=Lucida Console;" vertex="1" parent="gPuFUhs2jfw6zia65dsm-25">
          <mxGeometry y="26" width="350" height="20" as="geometry" />
        </mxCell>
        <mxCell id="gPuFUhs2jfw6zia65dsm-27" value="&lt;font style=&quot;color: rgb(255, 255, 255);&quot;&gt;+ budget_folder: str&lt;/font&gt;" style="text;strokeColor=none;fillColor=none;align=left;verticalAlign=middle;spacingLeft=4;spacingRight=4;overflow=hidden;rotatable=0;points=[[0,0.5],[1,0.5]];portConstraint=eastwest;whiteSpace=wrap;html=1;fontColor=#1A1A1A;fontFamily=Lucida Console;" vertex="1" parent="gPuFUhs2jfw6zia65dsm-25">
          <mxGeometry y="46" width="350" height="20" as="geometry" />
        </mxCell>
        <mxCell id="gPuFUhs2jfw6zia65dsm-28" value="&lt;font style=&quot;color: rgb(255, 255, 255);&quot;&gt;+ store_uri: str&lt;/font&gt;" style="text;strokeColor=none;fillColor=none;align=left;verticalAlign=middle;spacingLeft=4;spacingRight=4;overflow=hidden;rotatable=0;points=[[0,0.5],[1,0.5]];portConstraint=eastwest;whiteSpace=wrap;html=1;fontColor=#1A1A1A;fontFamily=Lucida Console;" vertex="1" parent="gPuFUhs2jfw6zia65dsm-25">
          <mxGeometry y="66" width="350" height="20" as="geometry" />
        </mxCell>
        <mxCell id="gPuFUhs2jfw6zia65dsm-29" value="&lt;font style=&quot;color: rgb(255, 255, 255);&quot;&gt;+ supported_workflows: List(str)&lt;/font&gt;" style="text;strokeColor=none;fillColor=none;align=left;verticalAlign=middle;spacingLeft=4;spacingRight=4;overflow=hidden;rotatable=0;points=[[0,0.5],[1,0.5]];portConstraint=eastwest;whiteSpace=wrap;html=1;fontColor=#1A1A1A;fontFamily=Lucida Console;" vertex="1" parent="gPuFUhs2jfw6zia65dsm-25">
          <mxGeometry y="86" width="350" height="20" as="geometry" />
        </mxCell>
        <mxCell id="gPuFUhs2jfw6zia65dsm-32" value="&lt;font style=&quot;color: rgb(255, 255, 255);&quot;&gt;+ financial_institutions: dict &lt;br&gt;&amp;nbsp; {&quot;fi_key&quot;: &quot;fi_dict&quot;, ... }&lt;/font&gt;" style="text;strokeColor=none;fillColor=none;align=left;verticalAlign=middle;spacingLeft=4;spacingRight=4;overflow=hidden;rotatable=0;points=[[0,0.5],[1,0.5]];portConstraint=eastwest;whiteSpace=wrap;html=1;fontColor=#1A1A1A;fontFamily=Lucida Console;" vertex="1" parent="gPuFUhs2jfw6zia65dsm-25">
          <mxGeometry y="106" width="350" height="36" as="geometry" />
        </mxCell>
        <mxCell id="gPuFUhs2jfw6zia65dsm-30" value="" style="line;strokeWidth=1;fillColor=none;align=left;verticalAlign=middle;spacingTop=-1;spacingLeft=3;spacingRight=3;rotatable=0;labelPosition=right;points=[];portConstraint=eastwest;strokeColor=inherit;fontColor=#1A1A1A;" vertex="1" parent="gPuFUhs2jfw6zia65dsm-25">
          <mxGeometry y="142" width="350" height="8" as="geometry" />
        </mxCell>
        <mxCell id="gPuFUhs2jfw6zia65dsm-31" value="+ name: str" style="text;strokeColor=none;fillColor=none;align=left;verticalAlign=top;spacingLeft=4;spacingRight=4;overflow=hidden;rotatable=0;points=[[0,0.5],[1,0.5]];portConstraint=eastwest;whiteSpace=wrap;html=1;fontColor=#1A1A1A;" vertex="1" parent="gPuFUhs2jfw6zia65dsm-25">
          <mxGeometry y="150" width="350" height="26" as="geometry" />
        </mxCell>
        <mxCell id="gPuFUhs2jfw6zia65dsm-34" style="edgeStyle=orthogonalEdgeStyle;rounded=0;orthogonalLoop=1;jettySize=auto;html=1;entryX=-0.018;entryY=0.384;entryDx=0;entryDy=0;entryPerimeter=0;strokeColor=#736CA8;fontColor=#1A1A1A;" edge="1" parent="1" source="gPuFUhs2jfw6zia65dsm-32" target="gPuFUhs2jfw6zia65dsm-23">
          <mxGeometry relative="1" as="geometry" />
        </mxCell>
        <mxCell id="gPuFUhs2jfw6zia65dsm-35" value="&lt;font style=&quot;color: rgb(255, 255, 255);&quot;&gt;fi_key&lt;/font&gt;" style="edgeLabel;html=1;align=center;verticalAlign=middle;resizable=0;points=[];strokeColor=#D0CEE2;fontColor=#1A1A1A;fillColor=#5D7F99;" vertex="1" connectable="0" parent="gPuFUhs2jfw6zia65dsm-34">
          <mxGeometry x="0.3119" relative="1" as="geometry">
            <mxPoint y="-8" as="offset" />
          </mxGeometry>
        </mxCell>
        <mxCell id="gPuFUhs2jfw6zia65dsm-36" value="BudgetModelTemplate" style="swimlane;fontStyle=1;align=center;verticalAlign=top;childLayout=stackLayout;horizontal=1;startSize=26;horizontalStack=0;resizeParent=1;resizeParentMax=0;resizeLast=0;collapsible=1;marginBottom=0;whiteSpace=wrap;html=1;strokeColor=#D0CEE2;fontColor=#1A1A1A;fillColor=#5D7F99;" vertex="1" parent="1">
          <mxGeometry x="220" y="800" width="350" height="176" as="geometry">
            <mxRectangle x="430" y="598" width="140" height="30" as="alternateBounds" />
          </mxGeometry>
        </mxCell>
        <mxCell id="gPuFUhs2jfw6zia65dsm-37" value="&lt;font style=&quot;color: rgb(255, 255, 255);&quot;&gt;+ initialized: bool&lt;/font&gt;" style="text;strokeColor=none;fillColor=none;align=left;verticalAlign=middle;spacingLeft=4;spacingRight=4;overflow=hidden;rotatable=0;points=[[0,0.5],[1,0.5]];portConstraint=eastwest;whiteSpace=wrap;html=1;fontColor=#1A1A1A;fontFamily=Lucida Console;" vertex="1" parent="gPuFUhs2jfw6zia65dsm-36">
          <mxGeometry y="26" width="350" height="20" as="geometry" />
        </mxCell>
        <mxCell id="gPuFUhs2jfw6zia65dsm-38" value="&lt;font style=&quot;color: rgb(255, 255, 255);&quot;&gt;+ budget_folder: str&lt;/font&gt;" style="text;strokeColor=none;fillColor=none;align=left;verticalAlign=middle;spacingLeft=4;spacingRight=4;overflow=hidden;rotatable=0;points=[[0,0.5],[1,0.5]];portConstraint=eastwest;whiteSpace=wrap;html=1;fontColor=#1A1A1A;fontFamily=Lucida Console;" vertex="1" parent="gPuFUhs2jfw6zia65dsm-36">
          <mxGeometry y="46" width="350" height="20" as="geometry" />
        </mxCell>
        <mxCell id="gPuFUhs2jfw6zia65dsm-39" value="&lt;font style=&quot;color: rgb(255, 255, 255);&quot;&gt;+ store_uri: str&lt;/font&gt;" style="text;strokeColor=none;fillColor=none;align=left;verticalAlign=middle;spacingLeft=4;spacingRight=4;overflow=hidden;rotatable=0;points=[[0,0.5],[1,0.5]];portConstraint=eastwest;whiteSpace=wrap;html=1;fontColor=#1A1A1A;fontFamily=Lucida Console;" vertex="1" parent="gPuFUhs2jfw6zia65dsm-36">
          <mxGeometry y="66" width="350" height="20" as="geometry" />
        </mxCell>
        <mxCell id="gPuFUhs2jfw6zia65dsm-40" value="&lt;font style=&quot;color: rgb(255, 255, 255);&quot;&gt;+ supported_workflows: List(str)&lt;/font&gt;" style="text;strokeColor=none;fillColor=none;align=left;verticalAlign=middle;spacingLeft=4;spacingRight=4;overflow=hidden;rotatable=0;points=[[0,0.5],[1,0.5]];portConstraint=eastwest;whiteSpace=wrap;html=1;fontColor=#1A1A1A;fontFamily=Lucida Console;" vertex="1" parent="gPuFUhs2jfw6zia65dsm-36">
          <mxGeometry y="86" width="350" height="20" as="geometry" />
        </mxCell>
        <mxCell id="gPuFUhs2jfw6zia65dsm-41" value="&lt;font style=&quot;color: rgb(255, 255, 255);&quot;&gt;+ financial_institutions: dict &lt;br&gt;&amp;nbsp; {&quot;fi_key&quot;: &quot;fi_dict&quot;, ... }&lt;/font&gt;" style="text;strokeColor=none;fillColor=none;align=left;verticalAlign=middle;spacingLeft=4;spacingRight=4;overflow=hidden;rotatable=0;points=[[0,0.5],[1,0.5]];portConstraint=eastwest;whiteSpace=wrap;html=1;fontColor=#1A1A1A;fontFamily=Lucida Console;" vertex="1" parent="gPuFUhs2jfw6zia65dsm-36">
          <mxGeometry y="106" width="350" height="36" as="geometry" />
        </mxCell>
        <mxCell id="gPuFUhs2jfw6zia65dsm-42" value="" style="line;strokeWidth=1;fillColor=none;align=left;verticalAlign=middle;spacingTop=-1;spacingLeft=3;spacingRight=3;rotatable=0;labelPosition=right;points=[];portConstraint=eastwest;strokeColor=inherit;fontColor=#1A1A1A;" vertex="1" parent="gPuFUhs2jfw6zia65dsm-36">
          <mxGeometry y="142" width="350" height="8" as="geometry" />
        </mxCell>
        <mxCell id="gPuFUhs2jfw6zia65dsm-43" value="+ name: str" style="text;strokeColor=none;fillColor=none;align=left;verticalAlign=top;spacingLeft=4;spacingRight=4;overflow=hidden;rotatable=0;points=[[0,0.5],[1,0.5]];portConstraint=eastwest;whiteSpace=wrap;html=1;fontColor=#1A1A1A;" vertex="1" parent="gPuFUhs2jfw6zia65dsm-36">
          <mxGeometry y="150" width="350" height="26" as="geometry" />
        </mxCell>
        <mxCell id="gPuFUhs2jfw6zia65dsm-44" value="&lt;font style=&quot;color: rgb(212, 225, 245);&quot;&gt;Extends&lt;/font&gt;" style="endArrow=block;endSize=16;endFill=0;html=1;rounded=0;strokeColor=#736CA8;fontColor=#1A1A1A;entryX=0.5;entryY=1;entryDx=0;entryDy=0;exitX=0.513;exitY=-0.002;exitDx=0;exitDy=0;exitPerimeter=0;" edge="1" parent="1" source="gPuFUhs2jfw6zia65dsm-36" target="gPuFUhs2jfw6zia65dsm-25">
          <mxGeometry width="160" relative="1" as="geometry">
            <mxPoint x="405" y="540" as="sourcePoint" />
            <mxPoint x="302" y="455" as="targetPoint" />
          </mxGeometry>
        </mxCell>
        <mxCell id="gPuFUhs2jfw6zia65dsm-46" value="Workflow (WF)" style="swimlane;fontStyle=1;align=center;verticalAlign=top;childLayout=stackLayout;horizontal=1;startSize=26;horizontalStack=0;resizeParent=1;resizeParentMax=0;resizeLast=0;collapsible=1;marginBottom=0;whiteSpace=wrap;html=1;strokeColor=#D0CEE2;fontColor=#1A1A1A;fillColor=#5D7F99;" vertex="1" parent="1">
          <mxGeometry x="1050" y="650" width="200" height="200" as="geometry">
            <mxRectangle x="430" y="598" width="140" height="30" as="alternateBounds" />
          </mxGeometry>
        </mxCell>
        <mxCell id="gPuFUhs2jfw6zia65dsm-47" value="&lt;font style=&quot;color: rgb(255, 255, 255);&quot;&gt;+ WF_NAME: str&lt;/font&gt;" style="text;strokeColor=none;fillColor=none;align=left;verticalAlign=middle;spacingLeft=4;spacingRight=4;overflow=hidden;rotatable=0;points=[[0,0.5],[1,0.5]];portConstraint=eastwest;whiteSpace=wrap;html=1;fontColor=#1A1A1A;fontFamily=Lucida Console;" vertex="1" parent="gPuFUhs2jfw6zia65dsm-46">
          <mxGeometry y="26" width="200" height="20" as="geometry" />
        </mxCell>
        <mxCell id="gPuFUhs2jfw6zia65dsm-48" value="&lt;font style=&quot;color: rgb(255, 255, 255);&quot;&gt;+ WF_FOLDER_IN: str&lt;/font&gt;" style="text;strokeColor=none;fillColor=none;align=left;verticalAlign=middle;spacingLeft=4;spacingRight=4;overflow=hidden;rotatable=0;points=[[0,0.5],[1,0.5]];portConstraint=eastwest;whiteSpace=wrap;html=1;fontColor=#1A1A1A;fontFamily=Lucida Console;" vertex="1" parent="gPuFUhs2jfw6zia65dsm-46">
          <mxGeometry y="46" width="200" height="20" as="geometry" />
        </mxCell>
        <mxCell id="gPuFUhs2jfw6zia65dsm-49" value="&lt;font style=&quot;color: rgb(255, 255, 255);&quot;&gt;+ WF_WORKBOOKS_IN: str&lt;/font&gt;" style="text;strokeColor=none;fillColor=none;align=left;verticalAlign=middle;spacingLeft=4;spacingRight=4;overflow=hidden;rotatable=0;points=[[0,0.5],[1,0.5]];portConstraint=eastwest;whiteSpace=wrap;html=1;fontColor=#1A1A1A;fontFamily=Lucida Console;" vertex="1" parent="gPuFUhs2jfw6zia65dsm-46">
          <mxGeometry y="66" width="200" height="20" as="geometry" />
        </mxCell>
        <mxCell id="gPuFUhs2jfw6zia65dsm-50" value="&lt;font style=&quot;color: rgb(255, 255, 255);&quot;&gt;+ WF_PREFIX_IN: str&lt;/font&gt;" style="text;strokeColor=none;fillColor=none;align=left;verticalAlign=middle;spacingLeft=4;spacingRight=4;overflow=hidden;rotatable=0;points=[[0,0.5],[1,0.5]];portConstraint=eastwest;whiteSpace=wrap;html=1;fontColor=#1A1A1A;fontFamily=Lucida Console;" vertex="1" parent="gPuFUhs2jfw6zia65dsm-46">
          <mxGeometry y="86" width="200" height="20" as="geometry" />
        </mxCell>
        <mxCell id="gPuFUhs2jfw6zia65dsm-53" value="&lt;font style=&quot;color: rgb(255, 255, 255);&quot;&gt;+ WF_FOLDER_OUT: str&lt;/font&gt;" style="text;strokeColor=none;fillColor=none;align=left;verticalAlign=middle;spacingLeft=4;spacingRight=4;overflow=hidden;rotatable=0;points=[[0,0.5],[1,0.5]];portConstraint=eastwest;whiteSpace=wrap;html=1;fontColor=#1A1A1A;fontFamily=Lucida Console;" vertex="1" parent="gPuFUhs2jfw6zia65dsm-46">
          <mxGeometry y="106" width="200" height="20" as="geometry" />
        </mxCell>
        <mxCell id="gPuFUhs2jfw6zia65dsm-54" value="&lt;font style=&quot;color: rgb(255, 255, 255);&quot;&gt;+ WF_WORKBOOKS_OUT: str&lt;/font&gt;" style="text;strokeColor=none;fillColor=none;align=left;verticalAlign=middle;spacingLeft=4;spacingRight=4;overflow=hidden;rotatable=0;points=[[0,0.5],[1,0.5]];portConstraint=eastwest;whiteSpace=wrap;html=1;fontColor=#1A1A1A;fontFamily=Lucida Console;" vertex="1" parent="gPuFUhs2jfw6zia65dsm-46">
          <mxGeometry y="126" width="200" height="20" as="geometry" />
        </mxCell>
        <mxCell id="gPuFUhs2jfw6zia65dsm-55" value="&lt;font style=&quot;color: rgb(255, 255, 255);&quot;&gt;+ WF_PREFIX_OUT: str&lt;/font&gt;" style="text;strokeColor=none;fillColor=none;align=left;verticalAlign=middle;spacingLeft=4;spacingRight=4;overflow=hidden;rotatable=0;points=[[0,0.5],[1,0.5]];portConstraint=eastwest;whiteSpace=wrap;html=1;fontColor=#1A1A1A;fontFamily=Lucida Console;" vertex="1" parent="gPuFUhs2jfw6zia65dsm-46">
          <mxGeometry y="146" width="200" height="20" as="geometry" />
        </mxCell>
        <mxCell id="gPuFUhs2jfw6zia65dsm-51" value="" style="line;strokeWidth=1;fillColor=none;align=left;verticalAlign=middle;spacingTop=-1;spacingLeft=3;spacingRight=3;rotatable=0;labelPosition=right;points=[];portConstraint=eastwest;strokeColor=inherit;fontColor=#1A1A1A;" vertex="1" parent="gPuFUhs2jfw6zia65dsm-46">
          <mxGeometry y="166" width="200" height="8" as="geometry" />
        </mxCell>
        <mxCell id="gPuFUhs2jfw6zia65dsm-52" value="+ name: str" style="text;strokeColor=none;fillColor=none;align=left;verticalAlign=top;spacingLeft=4;spacingRight=4;overflow=hidden;rotatable=0;points=[[0,0.5],[1,0.5]];portConstraint=eastwest;whiteSpace=wrap;html=1;fontColor=#1A1A1A;" vertex="1" parent="gPuFUhs2jfw6zia65dsm-46">
          <mxGeometry y="174" width="200" height="26" as="geometry" />
        </mxCell>
        <mxCell id="gPuFUhs2jfw6zia65dsm-56" value="1" style="endArrow=open;html=1;endSize=12;startArrow=diamondThin;startSize=14;startFill=0;edgeStyle=orthogonalEdgeStyle;align=left;verticalAlign=bottom;rounded=0;strokeColor=#736CA8;fontColor=#1A1A1A;entryX=0.009;entryY=0.092;entryDx=0;entryDy=0;entryPerimeter=0;" edge="1" parent="1" source="gPuFUhs2jfw6zia65dsm-23" target="gPuFUhs2jfw6zia65dsm-46">
          <mxGeometry x="-1" y="3" relative="1" as="geometry">
            <mxPoint x="810" y="880" as="sourcePoint" />
            <mxPoint x="970" y="880" as="targetPoint" />
          </mxGeometry>
        </mxCell>
      </root>
    </mxGraphModel>
  </diagram>
</mxfile>
